<svg width="367" height="120" viewBox="0 0 367 120" fill="none" xmlns="http://www.w3.org/2000/svg">
<path d="M367 0H0V120H367V0Z" fill="#AE3AA7"/>
<path d="M114.955 76.667H108.392V38.75H114.955V76.667ZM128.319 48.49L128.501 51.745C129.483 50.5245 130.734 49.5483 132.157 48.8932C133.58 48.238 135.135 47.9216 136.701 47.969C142.568 47.969 145.554 51.3283 145.659 58.047V76.667H139.33V58.411C139.445 56.9899 139.032 55.5762 138.171 54.44C137.667 53.9693 137.068 53.6109 136.415 53.3887C135.762 53.1665 135.069 53.0855 134.382 53.151C133.198 53.1127 132.029 53.4198 131.017 54.0349C130.004 54.6501 129.193 55.5466 128.682 56.615V76.667H122.351V48.49H128.319ZM167.898 69.01C167.919 68.4948 167.801 67.9834 167.555 67.5297C167.31 67.0761 166.947 66.6969 166.505 66.432C165.061 65.6595 163.499 65.1317 161.883 64.87C160.024 64.5138 158.214 63.9367 156.492 63.151C153.332 61.623 151.752 59.4093 151.752 56.51C151.746 55.3236 152.021 54.1526 152.555 53.0932C153.089 52.0338 153.867 51.1163 154.825 50.416C157.068 48.7205 159.829 47.8553 162.638 47.968C165.567 47.8292 168.453 48.713 170.802 50.468C171.795 51.2272 172.594 52.2103 173.135 53.3371C173.676 54.4639 173.943 55.7025 173.914 56.952H167.585C167.597 56.3778 167.481 55.8081 167.247 55.2836C167.013 54.7591 166.666 54.2928 166.231 53.918C165.229 53.0754 163.945 52.6428 162.637 52.707C161.429 52.6535 160.237 52.9916 159.237 53.671C158.82 53.9572 158.481 54.343 158.251 54.7933C158.021 55.2437 157.907 55.7444 157.919 56.25C157.905 56.7021 158.011 57.1498 158.226 57.5478C158.441 57.9457 158.757 58.2797 159.143 58.516C160.698 59.3121 162.367 59.8614 164.091 60.144C166.117 60.5346 168.083 61.1913 169.937 62.097C171.202 62.7208 172.287 63.6574 173.088 64.818C173.801 65.9741 174.16 67.3141 174.119 68.672C174.14 69.8785 173.864 71.0717 173.315 72.146C172.765 73.2202 171.959 74.1424 170.968 74.831C168.55 76.497 165.652 77.3249 162.719 77.188C160.595 77.2262 158.489 76.7996 156.547 75.938C154.854 75.1974 153.396 74.0091 152.328 72.501C151.347 71.1246 150.82 69.477 150.818 67.787H156.964C156.971 68.4521 157.127 69.1072 157.42 69.7043C157.712 70.3014 158.135 70.8255 158.657 71.238C159.862 72.0958 161.321 72.5224 162.798 72.449C164.133 72.537 165.462 72.2044 166.598 71.498C167.005 71.2244 167.337 70.8536 167.564 70.419C167.791 69.9845 167.906 69.5002 167.898 69.01V69.01ZM187.559 41.641V48.49H192.533V53.177H187.559V68.906C187.485 69.7344 187.711 70.5618 188.197 71.237C188.506 71.5082 188.869 71.712 189.261 71.8353C189.653 71.9586 190.067 71.9987 190.476 71.953C191.222 71.9513 191.964 71.864 192.69 71.693V76.593C191.335 76.9805 189.933 77.1824 188.523 77.193C183.662 77.193 181.231 74.5107 181.231 69.146V53.177H176.596V48.49H181.231V41.641H187.559ZM214.2 76.667C213.835 75.8288 213.59 74.9435 213.471 74.037C211.604 75.9214 209.1 77.0407 206.451 77.1755C203.801 77.3104 201.197 76.4511 199.148 74.766C198.29 74.0246 197.605 73.104 197.142 72.069C196.678 71.034 196.448 69.9099 196.466 68.776C196.399 67.4354 196.67 66.0994 197.255 64.8912C197.84 63.6829 198.719 62.6412 199.812 61.862C202.043 60.256 205.233 59.453 209.382 59.453H213.262V57.604C213.324 56.3226 212.885 55.0673 212.038 54.104C211.544 53.636 210.957 53.277 210.316 53.0505C209.674 52.8239 208.992 52.7348 208.314 52.789C207.045 52.7351 205.795 53.1165 204.772 53.87C204.339 54.1842 203.988 54.5976 203.748 55.0756C203.508 55.5536 203.386 56.0821 203.392 56.617H197.064C197.075 55.0402 197.616 53.5129 198.6 52.281C199.695 50.8814 201.136 49.7909 202.78 49.117C204.647 48.3322 206.655 47.942 208.68 47.971C211.524 47.8226 214.326 48.7057 216.571 50.458C217.562 51.3259 218.348 52.4037 218.87 53.6132C219.393 54.8226 219.639 56.1333 219.592 57.45V70.156C219.506 72.232 219.87 74.3021 220.66 76.224V76.667H214.2ZM207.247 72.11C208.482 72.114 209.697 71.8003 210.776 71.199C211.826 70.6431 212.691 69.7922 213.263 68.751V63.438H209.852C208.008 63.3132 206.168 63.7392 204.566 64.662C203.998 65.0382 203.536 65.5545 203.226 66.1611C202.915 66.7677 202.766 67.4441 202.793 68.125C202.77 68.6676 202.866 69.2088 203.075 69.71C203.285 70.2112 203.602 70.6601 204.004 71.025C204.91 71.7817 206.068 72.1687 207.247 72.109V72.11ZM225.112 62.37C225.112 57.9953 226.141 54.5013 228.198 51.888C229.152 50.6288 230.392 49.616 231.817 48.9343C233.242 48.2525 234.809 47.9215 236.388 47.969C237.825 47.9031 239.258 48.1723 240.573 48.7553C241.888 49.3382 243.05 50.219 243.966 51.328L244.252 48.489H249.952V75.807C250.035 77.4274 249.771 79.0468 249.175 80.5562C248.58 82.0655 247.668 83.4298 246.501 84.557C244.2 86.6903 241.097 87.757 237.191 87.757C235.105 87.7529 233.043 87.3139 231.136 86.468C229.366 85.7616 227.816 84.5979 226.644 83.096L229.639 79.296C230.492 80.3845 231.584 81.2627 232.83 81.8632C234.076 82.4638 235.443 82.7705 236.826 82.76C238.643 82.8604 240.427 82.2484 241.8 81.054C242.439 80.3935 242.932 79.6057 243.246 78.7419C243.56 77.8781 243.689 76.9578 243.623 76.041V74.141C242.705 75.1523 241.576 75.9494 240.316 76.476C239.056 77.0025 237.695 77.2456 236.331 77.188C234.768 77.2189 233.221 76.8785 231.815 76.195C230.409 75.5115 229.186 74.5042 228.245 73.256C226.156 70.6353 225.111 67.0067 225.111 62.37H225.112ZM231.412 62.917C231.282 65.2695 231.887 67.6042 233.144 69.597C233.673 70.3754 234.391 71.0071 235.23 71.4329C236.07 71.8587 237.003 72.0648 237.944 72.032C239.105 72.0836 240.256 71.8021 241.262 71.2207C242.268 70.6394 243.086 69.7824 243.621 68.751V56.351C243.087 55.3358 242.274 54.4948 241.277 53.9276C240.28 53.3605 239.141 53.091 237.996 53.151C237.043 53.1146 236.096 53.3228 235.246 53.7559C234.395 54.1889 233.67 54.8324 233.139 55.625C231.988 57.2743 231.413 59.705 231.413 62.917H231.412ZM271.204 54.271C270.352 54.1307 269.49 54.0611 268.626 54.063C265.727 54.063 263.774 55.174 262.767 57.396V76.667H256.439V48.49H262.481L262.637 51.641C263.264 50.5104 264.186 49.5715 265.305 48.9247C266.425 48.2779 267.699 47.9476 268.991 47.969C269.754 47.9452 270.515 48.0691 271.231 48.334L271.204 54.271ZM291.256 76.671C290.891 75.8328 290.646 74.9475 290.527 74.041C288.66 75.9254 286.156 77.0447 283.507 77.1795C280.857 77.3144 278.253 76.4551 276.204 74.77C275.346 74.0286 274.661 73.108 274.198 72.073C273.734 71.038 273.504 69.9139 273.522 68.78C273.455 67.4394 273.726 66.1034 274.311 64.8952C274.896 63.6869 275.775 62.6452 276.868 61.866C279.099 60.26 282.289 59.457 286.438 59.457H290.318V57.604C290.38 56.3226 289.941 55.0672 289.094 54.104C288.6 53.636 288.013 53.277 287.372 53.0505C286.73 52.8239 286.048 52.7348 285.37 52.789C284.101 52.7351 282.851 53.1165 281.828 53.87C281.395 54.1842 281.044 54.5976 280.804 55.0756C280.564 55.5536 280.442 56.0821 280.448 56.617H274.119C274.13 55.0402 274.671 53.5129 275.655 52.281C276.75 50.8814 278.191 49.7909 279.835 49.117C281.702 48.3322 283.71 47.942 285.735 47.971C288.579 47.8226 291.381 48.7057 293.626 50.458C294.617 51.3259 295.403 52.4037 295.925 53.6132C296.448 54.8226 296.694 56.1333 296.647 57.45V70.156C296.562 72.2327 296.928 74.3031 297.719 76.225V76.668L291.256 76.671ZM284.303 72.114C285.538 72.118 286.753 71.8043 287.832 71.203C288.882 70.6471 289.747 69.7962 290.319 68.755V63.438H286.908C285.064 63.3132 283.224 63.7392 281.622 64.662C281.054 65.0384 280.593 65.5548 280.283 66.1614C279.973 66.768 279.824 67.4443 279.851 68.125C279.828 68.6676 279.924 69.2088 280.133 69.71C280.343 70.2112 280.66 70.6601 281.062 71.025C281.968 71.7814 283.125 72.1685 284.304 72.109L284.303 72.114ZM309.225 48.494L309.407 51.437C310.412 50.2841 311.665 49.3736 313.072 48.7737C314.48 48.1739 316.004 47.9001 317.532 47.973C321.299 47.973 323.877 49.414 325.266 52.296C326.224 50.903 327.519 49.7757 329.032 49.0196C330.544 48.2636 332.223 47.9035 333.912 47.973C337.019 47.973 339.333 48.8323 340.852 50.551C342.371 52.2697 343.148 54.803 343.183 58.151V76.667H336.855V58.333C336.976 56.9213 336.557 55.5162 335.683 54.401C335.156 53.9386 334.54 53.5891 333.873 53.3741C333.205 53.1591 332.501 53.0832 331.803 53.151C330.525 53.0961 329.271 53.5081 328.274 54.31C327.347 55.1071 326.68 56.164 326.36 57.344L326.386 76.667H320.059V58.125C319.972 54.809 318.28 53.151 314.981 53.151C313.876 53.0732 312.773 53.3266 311.813 53.8788C310.852 54.431 310.079 55.2569 309.59 56.251V76.667H303.262V48.49L309.225 48.494Z" fill="white"/>
<path d="M57.315 94C48.27 94 47.081 93.962 43.503 93.8C40.7242 93.7412 37.9751 93.2148 35.371 92.243C33.1361 91.4002 31.1113 90.0814 29.437 88.378C27.7328 86.7049 26.4147 84.6797 25.575 82.444C24.6017 79.8403 24.0743 77.0911 24.015 74.312C23.854 70.748 23.815 69.562 23.815 60.5C23.815 51.438 23.854 50.255 24.015 46.688C24.0748 43.909 24.6022 41.1599 25.575 38.556C26.4156 36.3207 27.7335 34.2957 29.437 32.622C31.1107 30.9185 33.1357 29.6006 35.371 28.76C37.9749 27.7872 40.724 27.2598 43.503 27.2C47.07 27.039 48.256 27 57.315 27C66.374 27 67.563 27.039 71.127 27.2C73.9061 27.2593 76.6553 27.7867 79.259 28.76C81.4947 29.5997 83.5199 30.9178 85.193 32.622C86.8964 34.2963 88.2152 36.3211 89.058 38.556C90.0298 41.1601 90.5562 43.9092 90.615 46.688C90.777 50.266 90.815 51.455 90.815 60.5C90.815 69.545 90.777 70.736 90.615 74.312C90.5567 77.0909 90.0303 79.8401 89.058 82.444C88.197 84.6699 86.8805 86.6914 85.193 88.379C83.5054 90.0665 81.4839 91.383 79.258 92.244C76.6543 93.2158 73.9055 93.7419 71.127 93.8C67.551 93.962 66.363 94 57.315 94ZM57.315 33.036C48.4 33.036 47.336 33.07 43.777 33.236C41.6534 33.2604 39.5497 33.6497 37.558 34.387C36.1024 34.9238 34.7855 35.7797 33.704 36.892C32.593 37.9734 31.7373 39.289 31.199 40.743C30.4623 42.736 30.072 44.8404 30.045 46.965C29.884 50.474 29.85 51.529 29.85 60.503C29.85 69.477 29.884 70.529 30.045 74.038C30.072 76.1626 30.4623 78.267 31.199 80.26C31.7365 81.7143 32.5924 83.0301 33.704 84.111C34.7852 85.2244 36.1021 86.0814 37.558 86.619C39.5497 87.3563 41.6534 87.7456 43.777 87.77C47.335 87.933 48.399 87.97 57.315 87.97C66.231 87.97 67.294 87.936 70.853 87.77C72.9766 87.7456 75.0803 87.3563 77.072 86.619C78.5169 86.0614 79.8292 85.2075 80.9243 84.1123C82.0195 83.0172 82.8734 81.7049 83.431 80.26C84.1708 78.2679 84.5612 76.1629 84.585 74.038C84.746 70.532 84.78 69.477 84.78 60.503C84.78 51.529 84.746 50.474 84.585 46.965C84.559 44.8403 84.1687 42.7357 83.431 40.743C82.8945 39.2881 82.0385 37.9722 80.926 36.892C79.8448 35.7786 78.5279 34.9216 77.072 34.384C75.0803 33.6467 72.9766 33.2574 70.853 33.233C67.294 33.07 66.23 33.036 57.315 33.036V33.036ZM57.315 77.705C53.9134 77.705 50.5881 76.6964 47.7597 74.8066C44.9313 72.9169 42.7267 70.2309 41.4248 67.0883C40.1228 63.9457 39.7819 60.4876 40.4451 57.1513C41.1084 53.8149 42.746 50.7502 45.151 48.3445C47.556 45.9389 50.6202 44.3003 53.9564 43.6361C57.2925 42.9719 60.7507 43.3118 63.8937 44.6128C67.0367 45.9139 69.7233 48.1177 71.6138 50.9456C73.5044 53.7734 74.514 57.0984 74.515 60.5C74.5089 65.0599 72.6948 69.4312 69.4705 72.6555C66.2462 75.8798 61.8749 77.6939 57.315 77.7V77.705ZM57.315 49.333C55.1064 49.333 52.9474 49.9879 51.1109 51.215C49.2745 52.442 47.8432 54.1861 46.998 56.2266C46.1528 58.2671 45.9317 60.5124 46.3626 62.6786C46.7935 64.8448 47.857 66.8345 49.4187 68.3963C50.9805 69.958 52.9702 71.0215 55.1364 71.4524C57.3026 71.8833 59.5479 71.6622 61.5884 70.817C63.6289 69.9718 65.373 68.5405 66.6 66.7041C67.8271 64.8676 68.482 62.7086 68.482 60.5C68.4788 57.5393 67.3013 54.7008 65.2078 52.6072C63.1142 50.5137 60.2757 49.3362 57.315 49.333V49.333ZM75.197 46.639C74.4016 46.6396 73.6239 46.4043 72.9622 45.9628C72.3006 45.5213 71.7847 44.8935 71.4799 44.1588C71.1751 43.4242 71.0951 42.6156 71.2499 41.8354C71.4047 41.0552 71.7874 40.3384 72.3497 39.7758C72.9119 39.2131 73.6284 38.8299 74.4084 38.6745C75.1885 38.5191 75.9972 38.5985 76.7321 38.9028C77.467 39.207 78.0952 39.7224 78.5371 40.3837C78.9791 41.0451 79.215 41.8226 79.215 42.618C79.2142 43.6837 78.7907 44.7055 78.0375 45.4593C77.2842 46.2132 76.2627 46.6374 75.197 46.639V46.639Z" fill="white"/>
</svg>
