<svg width="366" height="120" viewBox="0 0 366 120" fill="none" xmlns="http://www.w3.org/2000/svg">
<path d="M366 0H0V120H366V0Z" fill="#1877F2"/>
<path d="M132.555 64.265H117.295V80.333H110.706V42.416H134.795V47.733H117.295V59.005H132.555V64.265ZM155.342 80.333C154.977 79.4948 154.732 78.6095 154.613 77.703C153.671 78.7193 152.524 79.5252 151.249 80.0682C149.974 80.6112 148.599 80.879 147.213 80.854C144.681 80.9589 142.205 80.0929 140.29 78.433C139.432 77.6916 138.747 76.771 138.284 75.736C137.82 74.701 137.59 73.5769 137.608 72.443C137.541 71.1034 137.812 69.7685 138.396 68.561C138.98 67.3536 139.858 66.3123 140.95 65.533C143.181 63.927 146.371 63.124 150.52 63.124H154.4V61.271C154.462 59.9896 154.023 58.7343 153.176 57.771C152.683 57.3029 152.097 56.9437 151.456 56.7167C150.815 56.4896 150.134 56.3998 149.456 56.453C148.187 56.3991 146.938 56.7801 145.915 57.533C145.482 57.8472 145.131 58.2606 144.891 58.7386C144.651 59.2166 144.529 59.7451 144.535 60.28H138.206C138.217 58.7032 138.758 57.1759 139.742 55.944C140.837 54.5447 142.278 53.4547 143.922 52.781C145.788 51.9957 147.797 51.6048 149.821 51.633C152.665 51.4846 155.467 52.3677 157.712 54.12C158.703 54.9879 159.489 56.0657 160.011 57.2752C160.534 58.4846 160.78 59.7953 160.733 61.112V73.823C160.647 75.899 161.011 77.9691 161.801 79.891V80.333H155.342ZM148.389 75.776C149.624 75.78 150.839 75.4663 151.918 74.865C152.968 74.3091 153.833 73.4582 154.405 72.417V67.104H150.993C149.149 66.9792 147.309 67.4052 145.707 68.328C145.139 68.7045 144.678 69.2211 144.367 69.8279C144.057 70.4346 143.909 71.1111 143.936 71.792C143.913 72.3346 144.009 72.8758 144.218 73.377C144.428 73.8782 144.745 74.3271 145.147 74.692C146.053 75.4484 147.21 75.8355 148.389 75.776V75.776ZM178.936 75.802C180.374 75.8526 181.777 75.3599 182.868 74.422C183.367 74 183.773 73.4789 184.06 72.8917C184.347 72.3045 184.509 71.6641 184.535 71.011H190.499C190.428 72.7697 189.859 74.4719 188.858 75.92C187.806 77.4637 186.37 78.7068 184.691 79.527C182.931 80.414 180.985 80.8692 179.014 80.855C177.267 80.9379 175.523 80.6383 173.903 79.9771C172.284 79.3159 170.829 78.3091 169.639 77.027C167.33 74.475 166.175 70.9507 166.175 66.454V65.803C166.175 61.515 167.321 58.0817 169.613 55.503C170.794 54.2071 172.247 53.1882 173.868 52.5192C175.488 51.8502 177.237 51.5476 178.988 51.633C181.995 51.508 184.933 52.5589 187.178 54.563C188.231 55.5493 189.069 56.7421 189.64 58.067C190.212 59.3918 190.504 60.8203 190.498 62.263H184.534C184.515 60.7717 183.923 59.345 182.88 58.279C182.365 57.7613 181.749 57.355 181.07 57.0856C180.392 56.8162 179.665 56.6894 178.935 56.713C178.023 56.6671 177.113 56.8462 176.287 57.2346C175.46 57.6229 174.742 58.2086 174.195 58.94C173.084 60.4247 172.519 62.6773 172.502 65.698V66.713C172.502 69.7683 173.053 72.047 174.156 73.549C174.703 74.2912 175.427 74.8857 176.261 75.2789C177.095 75.6722 178.014 75.852 178.935 75.802H178.936ZM207.686 80.854C205.887 80.927 204.093 80.6281 202.415 79.9762C200.736 79.3242 199.211 78.3332 197.933 77.065C195.442 74.539 194.196 71.1753 194.196 66.974V66.193C194.15 63.5879 194.707 61.0074 195.823 58.653C196.826 56.532 198.411 54.7395 200.393 53.484C202.358 52.2497 204.636 51.6071 206.956 51.633C210.793 51.633 213.757 52.857 215.849 55.305C217.941 57.753 218.987 61.2167 218.987 65.696V68.248H200.576C200.653 70.3111 201.483 72.2746 202.907 73.769C203.581 74.4394 204.385 74.9654 205.269 75.3149C206.153 75.6645 207.1 75.8302 208.05 75.802C209.426 75.8279 210.788 75.5219 212.021 74.9099C213.254 74.2979 214.322 73.3979 215.133 72.286L218.544 75.541C217.414 77.2264 215.854 78.5794 214.026 79.46C212.049 80.41 209.878 80.8873 207.685 80.854H207.686ZM206.93 56.713C206.138 56.6844 205.349 56.8329 204.621 57.1478C203.894 57.4626 203.246 57.9359 202.724 58.533C201.557 59.9869 200.845 61.7537 200.68 63.611H212.737V63.142C212.734 61.3962 212.137 59.7035 211.044 58.342C210.517 57.7895 209.876 57.3577 209.166 57.0765C208.455 56.7953 207.693 56.6713 206.93 56.713V56.713ZM248.623 66.533C248.623 70.9083 247.646 74.3893 245.693 76.976C244.769 78.232 243.551 79.2424 242.146 79.9188C240.741 80.5952 239.191 80.917 237.633 80.856C236.156 80.9251 234.684 80.6368 233.342 80.0157C232 79.3946 230.828 78.4589 229.925 77.288L229.613 80.333H223.884V40.333H230.212V54.864C231.113 53.8 232.246 52.9559 233.523 52.396C234.8 51.836 236.188 51.5751 237.581 51.633C239.14 51.5688 240.691 51.8836 242.102 52.5503C243.513 53.217 244.741 54.2157 245.681 55.461C247.643 58.013 248.624 61.5797 248.624 66.161L248.623 66.533ZM242.295 65.986C242.295 62.9307 241.757 60.639 240.68 59.111C240.158 58.3626 239.453 57.7594 238.633 57.3584C237.813 56.9575 236.905 56.7718 235.993 56.819C234.776 56.7438 233.565 57.0494 232.529 57.6934C231.493 58.3375 230.683 59.2879 230.212 60.413V72.026C230.681 73.169 231.495 74.1371 232.541 74.7953C233.587 75.4536 234.812 75.7691 236.045 75.698C236.933 75.7399 237.817 75.5593 238.617 75.1727C239.418 74.786 240.109 74.2056 240.628 73.484C241.705 72.008 242.26 69.777 242.295 66.791V65.986ZM252.738 65.986C252.698 63.4053 253.26 60.8508 254.379 58.525C255.384 56.4113 256.987 54.6384 258.988 53.425C261.053 52.2098 263.414 51.5896 265.81 51.633C267.524 51.5662 269.233 51.8584 270.827 52.4907C272.421 53.1231 273.866 54.0817 275.068 55.305C277.522 57.9569 278.892 61.4322 278.909 65.045L278.935 66.529C278.98 69.1016 278.433 71.65 277.335 73.977C276.34 76.0838 274.746 77.8502 272.752 79.055C270.667 80.2802 268.282 80.9033 265.864 80.855C264.08 80.9305 262.3 80.6142 260.652 79.9281C259.003 79.242 257.524 78.203 256.32 76.884C253.933 74.2367 252.739 70.708 252.739 66.298L252.738 65.986ZM259.066 66.533C258.929 68.9364 259.559 71.3212 260.866 73.343C261.428 74.1373 262.18 74.7785 263.054 75.2083C263.927 75.638 264.894 75.8428 265.866 75.804C266.841 75.8421 267.809 75.6329 268.681 75.1957C269.553 74.7586 270.3 74.1078 270.853 73.304C272.042 71.6373 272.637 69.198 272.637 65.986C272.765 63.5907 272.122 61.2174 270.801 59.215C270.228 58.4426 269.482 57.8145 268.624 57.3805C267.766 56.9465 266.818 56.7186 265.856 56.7148C264.894 56.711 263.945 56.9315 263.083 57.3587C262.222 57.786 261.471 58.4082 260.892 59.176C259.675 60.814 259.066 63.2663 259.066 66.533V66.533ZM283.102 65.986C283.062 63.4053 283.624 60.8508 284.743 58.525C285.748 56.4113 287.351 54.6384 289.352 53.425C291.417 52.2096 293.779 51.5894 296.175 51.633C297.889 51.5662 299.598 51.8584 301.192 52.4907C302.786 53.1231 304.231 54.0817 305.433 55.305C307.887 57.9569 309.257 61.4322 309.274 65.045L309.3 66.529C309.345 69.1016 308.798 71.65 307.7 73.977C306.705 76.0838 305.111 77.8502 303.117 79.055C301.032 80.2802 298.647 80.9033 296.229 80.855C294.445 80.9305 292.665 80.6142 291.017 79.9281C289.368 79.242 287.889 78.203 286.685 76.884C284.298 74.2367 283.104 70.708 283.104 66.298L283.102 65.986ZM289.43 66.533C289.293 68.9364 289.923 71.3212 291.23 73.343C291.792 74.1373 292.544 74.7785 293.418 75.2083C294.291 75.638 295.258 75.8428 296.23 75.804C297.205 75.8421 298.173 75.6329 299.045 75.1957C299.917 74.7586 300.664 74.1078 301.217 73.304C302.406 71.6373 303.001 69.198 303.001 65.986C303.129 63.5907 302.486 61.2174 301.165 59.215C300.592 58.4426 299.846 57.8145 298.988 57.3805C298.13 56.9465 297.182 56.7186 296.22 56.7148C295.258 56.711 294.309 56.9315 293.447 57.3587C292.586 57.786 291.835 58.4082 291.256 59.176C290.039 60.814 289.43 63.2663 289.43 66.533V66.533ZM323.805 68.252L320.993 71.143V80.333H314.665V40.333H320.993V63.406L322.972 60.933L330.758 52.157H338.358L327.894 63.901L339.482 80.333H332.164L323.805 68.252Z" fill="white"/>
<path d="M93.185 60.528C93.1473 54.1658 91.2898 47.9473 87.8318 42.6068C84.3738 37.2663 79.4597 33.0269 73.67 30.3892C67.8802 27.7515 61.4565 26.8258 55.1576 27.7213C48.8586 28.6168 42.9475 31.2961 38.1222 35.4428C33.2969 39.5896 29.7591 45.0306 27.9265 51.1232C26.0938 57.2158 26.043 63.7057 27.7799 69.8263C29.5168 75.9469 32.969 81.4426 37.7287 85.6645C42.4884 89.8863 48.3568 92.6579 54.641 93.652V70.221H46.177V60.528H54.641V53.141C54.641 44.741 59.618 40.095 67.232 40.095C69.732 40.13 72.2261 40.349 74.694 40.75V48.997H70.494C66.353 48.997 65.062 51.582 65.062 54.233V60.523H74.307L72.829 70.216H65.058V93.652C72.92 92.3786 80.0705 88.3442 85.2256 82.2733C90.3807 76.2023 93.2028 68.4924 93.185 60.528" fill="white"/>
<path d="M72.939 69.971L74.408 60.336H65.212V54.084C65.212 51.448 66.496 48.879 70.612 48.879H74.791V40.676C72.338 40.2775 69.8589 40.0599 67.374 40.025C59.803 40.025 54.855 44.639 54.855 52.993V60.336H46.439V69.971H54.855V93.262C58.2866 93.8019 61.7814 93.8019 65.213 93.262V69.971H72.939Z" fill="#2680EB"/>
</svg>